<?xml version="1.0" encoding="UTF-8" standalone="no"?>
<svg
   height="16px"
   viewBox="0 0 16 16"
   width="16px"
   version="1.1"
   id="svg121"
   sodipodi:docname="alarm-centered-symbolic.svg"
   inkscape:version="1.1.1 (3bf5ae0d25, 2021-09-20)"
   xmlns:inkscape="http://www.inkscape.org/namespaces/inkscape"
   xmlns:sodipodi="http://sodipodi.sourceforge.net/DTD/sodipodi-0.dtd"
   xmlns="http://www.w3.org/2000/svg"
   xmlns:svg="http://www.w3.org/2000/svg">
  <defs
     id="defs125" />
  <sodipodi:namedview
     id="namedview123"
     pagecolor="#ffffff"
     bordercolor="#666666"
     borderopacity="1.0"
     inkscape:pageshadow="2"
     inkscape:pageopacity="0.0"
     inkscape:pagecheckerboard="0"
     showgrid="true"
     inkscape:zoom="48.5"
     inkscape:cx="4.9381443"
     inkscape:cy="8"
     inkscape:window-width="1920"
     inkscape:window-height="1011"
     inkscape:window-x="0"
     inkscape:window-y="0"
     inkscape:window-maximized="1"
     inkscape:current-layer="svg121">
    <inkscape:grid
       type="xygrid"
       id="grid942" />
  </sodipodi:namedview>
  <filter
     id="a"
     height="1"
     width="1"
     x="0"
     y="0">
    <feColorMatrix
       in="SourceGraphic"
       type="matrix"
       values="0 0 0 0 1 0 0 0 0 1 0 0 0 0 1 0 0 0 1 0"
       id="feColorMatrix2" />
  </filter>
  <mask
     id="b">
    <g
       filter="url(#a)"
       id="g7">
      <path
         d="m 0 0 h 16 v 16 h -16 z"
         fill-opacity="0.3"
         id="path5" />
    </g>
  </mask>
  <clipPath
     id="c">
    <path
       d="m 0 0 h 1600 v 1200 h -1600 z"
       id="path10" />
  </clipPath>
  <mask
     id="d">
    <g
       filter="url(#a)"
       id="g15">
      <path
         d="m 0 0 h 16 v 16 h -16 z"
         fill-opacity="0.05"
         id="path13" />
    </g>
  </mask>
  <clipPath
     id="e">
    <path
       d="m 0 0 h 1600 v 1200 h -1600 z"
       id="path18" />
  </clipPath>
  <mask
     id="f">
    <g
       filter="url(#a)"
       id="g23">
      <path
         d="m 0 0 h 16 v 16 h -16 z"
         fill-opacity="0.05"
         id="path21" />
    </g>
  </mask>
  <clipPath
     id="g">
    <path
       d="m 0 0 h 1600 v 1200 h -1600 z"
       id="path26" />
  </clipPath>
  <mask
     id="h">
    <g
       filter="url(#a)"
       id="g31">
      <path
         d="m 0 0 h 16 v 16 h -16 z"
         fill-opacity="0.05"
         id="path29" />
    </g>
  </mask>
  <clipPath
     id="i">
    <path
       d="m 0 0 h 1600 v 1200 h -1600 z"
       id="path34" />
  </clipPath>
  <mask
     id="j">
    <g
       filter="url(#a)"
       id="g39">
      <path
         d="m 0 0 h 16 v 16 h -16 z"
         fill-opacity="0.05"
         id="path37" />
    </g>
  </mask>
  <clipPath
     id="k">
    <path
       d="m 0 0 h 1600 v 1200 h -1600 z"
       id="path42" />
  </clipPath>
  <mask
     id="l">
    <g
       filter="url(#a)"
       id="g47">
      <path
         d="m 0 0 h 16 v 16 h -16 z"
         fill-opacity="0.05"
         id="path45" />
    </g>
  </mask>
  <clipPath
     id="m">
    <path
       d="m 0 0 h 1600 v 1200 h -1600 z"
       id="path50" />
  </clipPath>
  <mask
     id="n">
    <g
       filter="url(#a)"
       id="g55">
      <path
         d="m 0 0 h 16 v 16 h -16 z"
         fill-opacity="0.05"
         id="path53" />
    </g>
  </mask>
  <clipPath
     id="o">
    <path
       d="m 0 0 h 1600 v 1200 h -1600 z"
       id="path58" />
  </clipPath>
  <mask
     id="p">
    <g
       filter="url(#a)"
       id="g63">
      <path
         d="m 0 0 h 16 v 16 h -16 z"
         fill-opacity="0.3"
         id="path61" />
    </g>
  </mask>
  <clipPath
     id="q">
    <path
       d="m 0 0 h 1600 v 1200 h -1600 z"
       id="path66" />
  </clipPath>
  <mask
     id="r">
    <g
       filter="url(#a)"
       id="g71">
      <path
         d="m 0 0 h 16 v 16 h -16 z"
         fill-opacity="0.5"
         id="path69" />
    </g>
  </mask>
  <clipPath
     id="s">
    <path
       d="m 0 0 h 1600 v 1200 h -1600 z"
       id="path74" />
  </clipPath>
  <g
     clip-path="url(#c)"
     mask="url(#b)"
     transform="matrix(1 0 0 1 -620 -300)"
     id="g79">
    <path
       d="m 562.460938 212.058594 h 10.449218 c -1.183594 0.492187 -1.296875 2.460937 0 3 h -10.449218 z m 0 0"
       fill="#2e3436"
       id="path77" />
  </g>
  <g
     fill="#2e3436"
     id="g87"
     transform="matrix(0.99991007,0,0,0.9985597,0.50067447,-0.49797595)">
    <path
       d="M 7.5,3 C 3.921875,3 1,5.921875 1,9.5 c 0,1.6875 0.65625,3.222656 1.71875,4.382812 L 2.300781,14.28125 c -0.261719,0.25 -0.367187,0.621094 -0.28125,0.96875 0.085938,0.351562 0.355469,0.628906 0.703125,0.722656 0.347656,0.09766 0.71875,0 0.976563,-0.253906 L 4.289062,15.140625 C 5.238281,15.683594 6.332031,16 7.5,16 c 1.183594,0 2.296875,-0.324219 3.253906,-0.886719 l 0.507813,0.558594 c 0.234375,0.277344 0.601562,0.402344 0.960937,0.328125 0.355469,-0.07422 0.644532,-0.335938 0.753906,-0.683594 0.105469,-0.347656 0.01563,-0.726562 -0.238281,-0.988281 L 12.308594,13.851562 C 13.355469,12.695312 14,11.171875 14,9.5 14,5.921875 11.078125,3 7.5,3 Z m 0,2 C 9.996094,5 12,7.003906 12,9.5 12,11.996094 9.996094,14 7.5,14 5.003906,14 3,11.996094 3,9.5 3,7.003906 5.003906,5 7.5,5 Z M 7.492188,5.992188 C 7.214844,5.996094 6.996094,6.222656 7,6.5 V 9 H 5.5 C 5.320312,8.996094 5.152344,9.09375 5.0625,9.246094 4.96875,9.402344 4.96875,9.597656 5.0625,9.753906 5.152344,9.90625 5.320312,10.003906 5.5,10 h 2 C 7.777344,10 8,9.777344 8,9.5 v -3 C 8.003906,6.363281 7.949219,6.234375 7.855469,6.136719 7.757812,6.042969 7.628906,5.988281 7.492188,5.992188 Z m 0,0"
       id="path81" />
    <path
       d="M 2.109375,1.421875 C 0.964844,2.1875 0.652344,3.742188 1.421875,4.890625 l 4.15625,-2.78125 C 4.8125,0.964844 3.257812,0.652344 2.109375,1.421875 Z m 0,0"
       id="path83" />
    <path
       d="m 12.890625,1.421875 c 1.144531,0.765625 1.457031,2.320313 0.6875,3.46875 l -4.15625,-2.78125 c 0.765625,-1.144531 2.320313,-1.457031 3.46875,-0.6875 z m 0,0"
       id="path85" />
  </g>
  <g
     clip-path="url(#e)"
     mask="url(#d)"
     transform="matrix(1 0 0 1 -620 -300)"
     id="g91">
    <path
       d="m 16 748 h 1 v 1 h -1 z m 0 0"
       fill="#2e3436"
       fill-rule="evenodd"
       id="path89" />
  </g>
  <g
     clip-path="url(#g)"
     mask="url(#f)"
     transform="matrix(1 0 0 1 -620 -300)"
     id="g95">
    <path
       d="m 17 747 h 1 v 1 h -1 z m 0 0"
       fill="#2e3436"
       fill-rule="evenodd"
       id="path93" />
  </g>
  <g
     clip-path="url(#i)"
     mask="url(#h)"
     transform="matrix(1 0 0 1 -620 -300)"
     id="g99">
    <path
       d="m 18 750 h 1 v 1 h -1 z m 0 0"
       fill="#2e3436"
       fill-rule="evenodd"
       id="path97" />
  </g>
  <g
     clip-path="url(#k)"
     mask="url(#j)"
     transform="matrix(1 0 0 1 -620 -300)"
     id="g103">
    <path
       d="m 16 750 h 1 v 1 h -1 z m 0 0"
       fill="#2e3436"
       fill-rule="evenodd"
       id="path101" />
  </g>
  <g
     clip-path="url(#m)"
     mask="url(#l)"
     transform="matrix(1 0 0 1 -620 -300)"
     id="g107">
    <path
       d="m 17 751 h 1 v 1 h -1 z m 0 0"
       fill="#2e3436"
       fill-rule="evenodd"
       id="path105" />
  </g>
  <g
     clip-path="url(#o)"
     mask="url(#n)"
     transform="matrix(1 0 0 1 -620 -300)"
     id="g111">
    <path
       d="m 19 751 h 1 v 1 h -1 z m 0 0"
       fill="#2e3436"
       fill-rule="evenodd"
       id="path109" />
  </g>
  <g
     clip-path="url(#q)"
     mask="url(#p)"
     transform="matrix(1 0 0 1 -620 -300)"
     id="g115">
    <path
       d="m 136 776 v 7 h 7 v -7 z m 0 0"
       fill="#2e3436"
       id="path113" />
  </g>
  <g
     clip-path="url(#s)"
     mask="url(#r)"
     transform="matrix(1 0 0 1 -620 -300)"
     id="g119">
    <path
       d="m 219 758 h 3 v 12 h -3 z m 0 0"
       fill="#2e3436"
       id="path117" />
  </g>
</svg>
