<?xml version="1.0" encoding="UTF-8"?>
<svg xmlns="http://www.w3.org/2000/svg" xmlns:xlink="http://www.w3.org/1999/xlink" height="16px" viewBox="0 0 16 16" width="16px"><filter id="a" height="100%" width="100%" x="0%" y="0%"><feColorMatrix in="SourceGraphic" type="matrix" values="0 0 0 0 1 0 0 0 0 1 0 0 0 0 1 0 0 0 1 0"/></filter><mask id="b"><g filter="url(#a)"><path d="m 0 0 h 16 v 16 h -16 z" fill-opacity="0.3"/></g></mask><clipPath id="c"><path d="m 0 0 h 1600 v 1200 h -1600 z"/></clipPath><mask id="d"><g filter="url(#a)"><path d="m 0 0 h 16 v 16 h -16 z" fill-opacity="0.05"/></g></mask><clipPath id="e"><path d="m 0 0 h 1600 v 1200 h -1600 z"/></clipPath><mask id="f"><g filter="url(#a)"><path d="m 0 0 h 16 v 16 h -16 z" fill-opacity="0.05"/></g></mask><clipPath id="g"><path d="m 0 0 h 1600 v 1200 h -1600 z"/></clipPath><mask id="h"><g filter="url(#a)"><path d="m 0 0 h 16 v 16 h -16 z" fill-opacity="0.05"/></g></mask><clipPath id="i"><path d="m 0 0 h 1600 v 1200 h -1600 z"/></clipPath><mask id="j"><g filter="url(#a)"><path d="m 0 0 h 16 v 16 h -16 z" fill-opacity="0.05"/></g></mask><clipPath id="k"><path d="m 0 0 h 1600 v 1200 h -1600 z"/></clipPath><mask id="l"><g filter="url(#a)"><path d="m 0 0 h 16 v 16 h -16 z" fill-opacity="0.05"/></g></mask><clipPath id="m"><path d="m 0 0 h 1600 v 1200 h -1600 z"/></clipPath><mask id="n"><g filter="url(#a)"><path d="m 0 0 h 16 v 16 h -16 z" fill-opacity="0.05"/></g></mask><clipPath id="o"><path d="m 0 0 h 1600 v 1200 h -1600 z"/></clipPath><mask id="p"><g filter="url(#a)"><path d="m 0 0 h 16 v 16 h -16 z" fill-opacity="0.3"/></g></mask><clipPath id="q"><path d="m 0 0 h 1600 v 1200 h -1600 z"/></clipPath><mask id="r"><g filter="url(#a)"><path d="m 0 0 h 16 v 16 h -16 z" fill-opacity="0.5"/></g></mask><clipPath id="s"><path d="m 0 0 h 1600 v 1200 h -1600 z"/></clipPath><g clip-path="url(#c)" mask="url(#b)" transform="matrix(1 0 0 1 -620 -300)"><path d="m 562.460938 212.058594 h 10.449218 c -1.183594 0.492187 -1.296875 2.460937 0 3 h -10.449218 z m 0 0" fill="#2e3436"/></g><g fill="#2e3436"><path d="m 7.5 3 c -3.578125 0 -6.5 2.921875 -6.5 6.5 c 0 1.6875 0.65625 3.222656 1.71875 4.382812 l -0.417969 0.398438 c -0.261719 0.25 -0.367187 0.621094 -0.28125 0.96875 c 0.085938 0.351562 0.355469 0.628906 0.703125 0.722656 c 0.347656 0.097656 0.71875 0 0.976563 -0.253906 l 0.589843 -0.578125 c 0.949219 0.542969 2.042969 0.859375 3.210938 0.859375 c 1.183594 0 2.296875 -0.324219 3.253906 -0.886719 l 0.507813 0.558594 c 0.234375 0.277344 0.601562 0.402344 0.960937 0.328125 c 0.355469 -0.074219 0.644532 -0.335938 0.753906 -0.683594 c 0.105469 -0.347656 0.015626 -0.726562 -0.238281 -0.988281 l -0.429687 -0.476563 c 1.046875 -1.15625 1.691406 -2.679687 1.691406 -4.351562 c 0 -3.578125 -2.921875 -6.5 -6.5 -6.5 z m 0 2 c 2.496094 0 4.5 2.003906 4.5 4.5 s -2.003906 4.5 -4.5 4.5 s -4.5 -2.003906 -4.5 -4.5 s 2.003906 -4.5 4.5 -4.5 z m -0.007812 0.992188 c -0.277344 0.003906 -0.496094 0.230468 -0.492188 0.507812 v 2.5 h -1.5 c -0.179688 -0.003906 -0.347656 0.09375 -0.4375 0.246094 c -0.09375 0.15625 -0.09375 0.351562 0 0.507812 c 0.089844 0.152344 0.257812 0.25 0.4375 0.246094 h 2 c 0.277344 0 0.5 -0.222656 0.5 -0.5 v -3 c 0.003906 -0.136719 -0.050781 -0.265625 -0.144531 -0.363281 c -0.097657 -0.09375 -0.226563 -0.148438 -0.363281 -0.144531 z m 0 0"/><path d="m 2.109375 1.421875 c -1.144531 0.765625 -1.457031 2.320313 -0.6875 3.46875 l 4.15625 -2.78125 c -0.765625 -1.144531 -2.320313 -1.457031 -3.46875 -0.6875 z m 0 0"/><path d="m 12.890625 1.421875 c 1.144531 0.765625 1.457031 2.320313 0.6875 3.46875 l -4.15625 -2.78125 c 0.765625 -1.144531 2.320313 -1.457031 3.46875 -0.6875 z m 0 0"/></g><g clip-path="url(#e)" mask="url(#d)" transform="matrix(1 0 0 1 -620 -300)"><path d="m 16 748 h 1 v 1 h -1 z m 0 0" fill="#2e3436" fill-rule="evenodd"/></g><g clip-path="url(#g)" mask="url(#f)" transform="matrix(1 0 0 1 -620 -300)"><path d="m 17 747 h 1 v 1 h -1 z m 0 0" fill="#2e3436" fill-rule="evenodd"/></g><g clip-path="url(#i)" mask="url(#h)" transform="matrix(1 0 0 1 -620 -300)"><path d="m 18 750 h 1 v 1 h -1 z m 0 0" fill="#2e3436" fill-rule="evenodd"/></g><g clip-path="url(#k)" mask="url(#j)" transform="matrix(1 0 0 1 -620 -300)"><path d="m 16 750 h 1 v 1 h -1 z m 0 0" fill="#2e3436" fill-rule="evenodd"/></g><g clip-path="url(#m)" mask="url(#l)" transform="matrix(1 0 0 1 -620 -300)"><path d="m 17 751 h 1 v 1 h -1 z m 0 0" fill="#2e3436" fill-rule="evenodd"/></g><g clip-path="url(#o)" mask="url(#n)" transform="matrix(1 0 0 1 -620 -300)"><path d="m 19 751 h 1 v 1 h -1 z m 0 0" fill="#2e3436" fill-rule="evenodd"/></g><g clip-path="url(#q)" mask="url(#p)" transform="matrix(1 0 0 1 -620 -300)"><path d="m 136 776 v 7 h 7 v -7 z m 0 0" fill="#2e3436"/></g><g clip-path="url(#s)" mask="url(#r)" transform="matrix(1 0 0 1 -620 -300)"><path d="m 219 758 h 3 v 12 h -3 z m 0 0" fill="#2e3436"/></g></svg>
