<svg gpa:rendering="symbolic" xmlns="http://www.w3.org/2000/svg" xmlns:cc="http://creativecommons.org/ns#" xmlns:dc="http://purl.org/dc/elements/1.1/" xmlns:gpa="https://www.gtk.org/grappa" xmlns:rdf="http://www.w3.org/1999/02/22-rdf-syntax-ns#" width="16" height="16" gpa:version="1" gpa:state="0" gpa:state-names="outline empty">
<path d="M 8 3 L 8 1 M 2 12 L 8.4375 12 M 12 12 L 14 12 M 2 12 C 3.02507615 12, 4 11.1057377, 4 10 L 4 7.48613596 M 4.71586466 4.71586466 C 5.43857241 3.67869782, 6.64002705 3, 8 3 C 10.2091389 3, 12 4.79086113, 12 7 L 12 10 C 12 11.0847864, 12.9393396 12, 14 12" id="path0" gpa:states="outline" stroke-width="2" stroke-linecap="round" stroke-linejoin="round" stroke="rgb(0,0,0)" fill="none" class="foreground-stroke transparent-fill" gpa:stroke="foreground" gpa:stroke-minwidth="25%" gpa:stroke-maxwidth="150%" >
    </path>
  <path d="M 9.90913582 13.596117 C 9.76153183 14.0686741, 9.44114399 14.477356, 9 14.7320509 C 8.38119793 15.0893164, 7.61880207 15.0893164, 7 14.7320509 C 6.38119793 14.3747854, 6 13.7145309, 6 13" id="path1" gpa:states="outline" stroke-width="2" stroke-linecap="round" stroke-linejoin="round" stroke="rgb(0,0,0)" fill="none" class="foreground-stroke transparent-fill" gpa:stroke="foreground" gpa:stroke-minwidth="25%" gpa:stroke-maxwidth="150%" >
    </path>
  <path d="M 1 1 L 15 15" id="path2" gpa:states="outline" stroke-width="2" stroke-linecap="round" stroke-linejoin="round" stroke="rgb(0,0,0)" fill="none" class="foreground-stroke transparent-fill" gpa:stroke="foreground" gpa:stroke-minwidth="25%" gpa:stroke-maxwidth="150%" >
    </path>
  <metadata>
    <rdf:RDF>
      <cc:Work>
        <cc:license rdf:resource="https://creativecommons.org/publicdomain/zero/1.0/"></cc:license>
        <dc:subject>
          <rdf:Bag>
            <rdf:li>bell sound alarm notifications-disabled do-not-disturb dnd</rdf:li>
          </rdf:Bag>
        </dc:subject>
        <dc:creator>
          <cc:Agent>
            <dc:title>Jakub Steiner</dc:title>
          </cc:Agent>
        </dc:creator>
      </cc:Work>
    </rdf:RDF>
  </metadata>
</svg>