<?xml version="1.0" encoding="UTF-8" standalone="no"?>
<svg
   height="16px"
   viewBox="0 0 16 16"
   width="16px"
   version="1.1"
   id="svg115"
   sodipodi:docname="globe-centered-symbolic.svg"
   inkscape:version="1.1.1 (3bf5ae0d25, 2021-09-20)"
   xmlns:inkscape="http://www.inkscape.org/namespaces/inkscape"
   xmlns:sodipodi="http://sodipodi.sourceforge.net/DTD/sodipodi-0.dtd"
   xmlns="http://www.w3.org/2000/svg"
   xmlns:svg="http://www.w3.org/2000/svg">
  <defs
     id="defs119" />
  <sodipodi:namedview
     id="namedview117"
     pagecolor="#ffffff"
     bordercolor="#666666"
     borderopacity="1.0"
     inkscape:pageshadow="2"
     inkscape:pageopacity="0.0"
     inkscape:pagecheckerboard="0"
     showgrid="true"
     inkscape:zoom="48.5"
     inkscape:cx="7.9896907"
     inkscape:cy="8"
     inkscape:window-width="1920"
     inkscape:window-height="1011"
     inkscape:window-x="0"
     inkscape:window-y="0"
     inkscape:window-maximized="1"
     inkscape:current-layer="svg115">
    <inkscape:grid
       type="xygrid"
       id="grid936" />
  </sodipodi:namedview>
  <filter
     id="a"
     height="1"
     width="1"
     x="0"
     y="0">
    <feColorMatrix
       in="SourceGraphic"
       type="matrix"
       values="0 0 0 0 1 0 0 0 0 1 0 0 0 0 1 0 0 0 1 0"
       id="feColorMatrix2" />
  </filter>
  <mask
     id="b">
    <g
       filter="url(#a)"
       id="g7">
      <path
         d="m 0 0 h 16 v 16 h -16 z"
         fill-opacity="0.3"
         id="path5" />
    </g>
  </mask>
  <clipPath
     id="c">
    <path
       d="m 0 0 h 1600 v 1200 h -1600 z"
       id="path10" />
  </clipPath>
  <mask
     id="d">
    <g
       filter="url(#a)"
       id="g15">
      <path
         d="m 0 0 h 16 v 16 h -16 z"
         fill-opacity="0.05"
         id="path13" />
    </g>
  </mask>
  <clipPath
     id="e">
    <path
       d="m 0 0 h 1600 v 1200 h -1600 z"
       id="path18" />
  </clipPath>
  <mask
     id="f">
    <g
       filter="url(#a)"
       id="g23">
      <path
         d="m 0 0 h 16 v 16 h -16 z"
         fill-opacity="0.05"
         id="path21" />
    </g>
  </mask>
  <clipPath
     id="g">
    <path
       d="m 0 0 h 1600 v 1200 h -1600 z"
       id="path26" />
  </clipPath>
  <mask
     id="h">
    <g
       filter="url(#a)"
       id="g31">
      <path
         d="m 0 0 h 16 v 16 h -16 z"
         fill-opacity="0.05"
         id="path29" />
    </g>
  </mask>
  <clipPath
     id="i">
    <path
       d="m 0 0 h 1600 v 1200 h -1600 z"
       id="path34" />
  </clipPath>
  <mask
     id="j">
    <g
       filter="url(#a)"
       id="g39">
      <path
         d="m 0 0 h 16 v 16 h -16 z"
         fill-opacity="0.05"
         id="path37" />
    </g>
  </mask>
  <clipPath
     id="k">
    <path
       d="m 0 0 h 1600 v 1200 h -1600 z"
       id="path42" />
  </clipPath>
  <mask
     id="l">
    <g
       filter="url(#a)"
       id="g47">
      <path
         d="m 0 0 h 16 v 16 h -16 z"
         fill-opacity="0.05"
         id="path45" />
    </g>
  </mask>
  <clipPath
     id="m">
    <path
       d="m 0 0 h 1600 v 1200 h -1600 z"
       id="path50" />
  </clipPath>
  <mask
     id="n">
    <g
       filter="url(#a)"
       id="g55">
      <path
         d="m 0 0 h 16 v 16 h -16 z"
         fill-opacity="0.05"
         id="path53" />
    </g>
  </mask>
  <clipPath
     id="o">
    <path
       d="m 0 0 h 1600 v 1200 h -1600 z"
       id="path58" />
  </clipPath>
  <mask
     id="p">
    <g
       filter="url(#a)"
       id="g63">
      <path
         d="m 0 0 h 16 v 16 h -16 z"
         fill-opacity="0.3"
         id="path61" />
    </g>
  </mask>
  <clipPath
     id="q">
    <path
       d="m 0 0 h 1600 v 1200 h -1600 z"
       id="path66" />
  </clipPath>
  <mask
     id="r">
    <g
       filter="url(#a)"
       id="g71">
      <path
         d="m 0 0 h 16 v 16 h -16 z"
         fill-opacity="0.5"
         id="path69" />
    </g>
  </mask>
  <clipPath
     id="s">
    <path
       d="m 0 0 h 1600 v 1200 h -1600 z"
       id="path74" />
  </clipPath>
  <g
     clip-path="url(#c)"
     mask="url(#b)"
     transform="matrix(1 0 0 1 -680 -40)"
     id="g79">
    <path
       d="m 562.460938 212.058594 h 10.449218 c -1.183594 0.492187 -1.296875 2.460937 0 3 h -10.449218 z m 0 0"
       fill="#2e3436"
       id="path77" />
  </g>
  <path
     d="M 8,0.5 C 3.871094,0.5 0.5,3.871094 0.5,8 c 0,4.128906 3.371094,7.5 7.5,7.5 4.128906,0 7.5,-3.371094 7.5,-7.5 C 15.5,3.871094 12.128906,0.5 8,0.5 Z m 0,2 c 0.257812,0 0.503906,0.023438 0.75,0.054688 0.191406,0.261718 0.382812,0.59375 0.550781,1.027343 C 9.40625,3.859375 9.503906,4.167969 9.589844,4.5 H 6.410156 C 6.496094,4.167969 6.59375,3.859375 6.699219,3.582031 6.867188,3.148438 7.058594,2.816406 7.25,2.554688 7.496094,2.523438 7.742188,2.5 8,2.5 Z M 5.914062,2.90625 C 5.863281,3.015625 5.808594,3.109375 5.765625,3.222656 5.617188,3.609375 5.496094,4.042969 5.386719,4.5 H 3.769531 C 4.339844,3.808594 5.066406,3.253906 5.914062,2.90625 Z m 4.171876,0 C 10.933594,3.253906 11.660156,3.808594 12.230469,4.5 H 10.613281 C 10.503906,4.042969 10.382812,3.609375 10.234375,3.222656 10.191406,3.109375 10.136719,3.015625 10.085938,2.90625 Z M 3.105469,5.5 H 5.1875 C 5.089844,6.128906 5.039062,6.800781 5.019531,7.5 H 2.539062 c 0.0625,-0.714844 0.253907,-1.390625 0.566407,-2 z m 3.09375,0 h 3.601562 c 0.101563,0.617188 0.15625,1.292969 0.179688,2 H 6.019531 C 6.042969,6.792969 6.097656,6.117188 6.199219,5.5 Z m 4.613281,0 h 2.082031 c 0.3125,0.609375 0.503907,1.285156 0.566407,2 H 10.980469 C 10.960938,6.800781 10.910156,6.128906 10.8125,5.5 Z m -8.273438,3 h 2.480469 c 0.019531,0.699219 0.070313,1.375 0.167969,2 H 3.105469 C 2.792969,9.890625 2.601562,9.214844 2.539062,8.5 Z m 3.480469,0 h 3.960938 c -0.02344,0.707031 -0.07813,1.382812 -0.179688,2 H 6.199219 C 6.097656,9.882812 6.042969,9.207031 6.019531,8.5 Z m 4.960938,0 h 2.480469 c -0.0625,0.714844 -0.253907,1.390625 -0.566407,2 H 10.8125 c 0.09766,-0.625 0.148438,-1.300781 0.167969,-2 z m -7.210938,3 h 1.617188 c 0.109375,0.457031 0.230469,0.890625 0.378906,1.277344 0.042969,0.113281 0.097656,0.207031 0.148437,0.316406 C 5.066406,12.746094 4.339844,12.191406 3.769531,11.5 Z m 2.640625,0 H 9.589844 C 9.503906,11.832031 9.40625,12.140625 9.300781,12.417969 9.132812,12.851562 8.941406,13.183594 8.75,13.441406 8.503906,13.476562 8.253906,13.5 8,13.5 7.746094,13.5 7.496094,13.476562 7.25,13.445312 7.058594,13.183594 6.867188,12.851562 6.699219,12.417969 6.59375,12.140625 6.496094,11.832031 6.410156,11.5 Z m 4.203125,0 h 1.617188 c -0.570313,0.691406 -1.296875,1.246094 -2.144531,1.59375 0.05078,-0.109375 0.105468,-0.203125 0.148437,-0.316406 0.148437,-0.386719 0.269531,-0.820313 0.378906,-1.277344 z m 0,0"
     fill="#2e3436"
     id="path81" />
  <g
     clip-path="url(#e)"
     mask="url(#d)"
     transform="matrix(1 0 0 1 -680 -40)"
     id="g85">
    <path
       d="m 16 748 h 1 v 1 h -1 z m 0 0"
       fill="#2e3436"
       fill-rule="evenodd"
       id="path83" />
  </g>
  <g
     clip-path="url(#g)"
     mask="url(#f)"
     transform="matrix(1 0 0 1 -680 -40)"
     id="g89">
    <path
       d="m 17 747 h 1 v 1 h -1 z m 0 0"
       fill="#2e3436"
       fill-rule="evenodd"
       id="path87" />
  </g>
  <g
     clip-path="url(#i)"
     mask="url(#h)"
     transform="matrix(1 0 0 1 -680 -40)"
     id="g93">
    <path
       d="m 18 750 h 1 v 1 h -1 z m 0 0"
       fill="#2e3436"
       fill-rule="evenodd"
       id="path91" />
  </g>
  <g
     clip-path="url(#k)"
     mask="url(#j)"
     transform="matrix(1 0 0 1 -680 -40)"
     id="g97">
    <path
       d="m 16 750 h 1 v 1 h -1 z m 0 0"
       fill="#2e3436"
       fill-rule="evenodd"
       id="path95" />
  </g>
  <g
     clip-path="url(#m)"
     mask="url(#l)"
     transform="matrix(1 0 0 1 -680 -40)"
     id="g101">
    <path
       d="m 17 751 h 1 v 1 h -1 z m 0 0"
       fill="#2e3436"
       fill-rule="evenodd"
       id="path99" />
  </g>
  <g
     clip-path="url(#o)"
     mask="url(#n)"
     transform="matrix(1 0 0 1 -680 -40)"
     id="g105">
    <path
       d="m 19 751 h 1 v 1 h -1 z m 0 0"
       fill="#2e3436"
       fill-rule="evenodd"
       id="path103" />
  </g>
  <g
     clip-path="url(#q)"
     mask="url(#p)"
     transform="matrix(1 0 0 1 -680 -40)"
     id="g109">
    <path
       d="m 136 776 v 7 h 7 v -7 z m 0 0"
       fill="#2e3436"
       id="path107" />
  </g>
  <g
     clip-path="url(#s)"
     mask="url(#r)"
     transform="matrix(1 0 0 1 -680 -40)"
     id="g113">
    <path
       d="m 219 758 h 3 v 12 h -3 z m 0 0"
       fill="#2e3436"
       id="path111" />
  </g>
</svg>
