<svg xmlns="http://www.w3.org/2000/svg" xmlns:xlink="http://www.w3.org/1999/xlink" width="128" height="128"><defs><filter id="a" filterUnits="objectBoundingBox" x="0%" y="0%" width="100%" height="100%"><feColorMatrix in="SourceGraphic" values="0 0 0 0 1 0 0 0 0 1 0 0 0 0 1 0 0 0 1 0"/></filter><mask id="t"><g filter="url(#a)"><path fill-opacity=".2" d="M0 0h128v128H0z"/></g></mask><clipPath id="b"><path d="M0 0h192v152H0z"/></clipPath><g id="g" clip-path="url(#b)"><path d="M98.035 51.992a.995.995 0 0 0-.777.328L75.285 75.988a6.005 6.005 0 0 0-5.582-.523l-14.223-15.8a2.005 2.005 0 0 0-1.601-.685 2.01 2.01 0 0 0-1.762 1.247 2 2 0 0 0 .387 2.117l14.219 15.8a6.003 6.003 0 0 0-.211 5.305 5.994 5.994 0 0 0 2.406 2.7l-11.86 30.492c-.132.336-.078.714.145.996.227.285.586.422.942.367.355-.059.652-.3.78-.637l11.856-30.492a6.026 6.026 0 0 0 3.656-.39 6.007 6.007 0 0 0 3.036-7.926 6.088 6.088 0 0 0-.727-1.204l21.98-23.671a1.001 1.001 0 0 0-.69-1.692zm0 0" fill-rule="evenodd"/></g><linearGradient id="u" gradientUnits="userSpaceOnUse" x1="1660.857" y1="806.297" x2="1662.99" y2="812.882" gradientTransform="matrix(1.8294 -.816 .816 1.8294 -3637.962 92.03)"><stop offset="0" stop-color="#9a9996"/><stop offset="1" stop-color="#77767b"/></linearGradient><mask id="v"><g filter="url(#a)"><path fill-opacity=".1" d="M0 0h128v128H0z"/></g></mask><clipPath id="c"><path d="M0 0h192v152H0z"/></clipPath><g id="j" clip-path="url(#c)"><path d="M72 25c-29.824 0-54 24.176-54 54 .008.39.023.781.043 1.172C18.496 50.688 42.512 27.02 72 27c29.355.016 53.32 23.48 53.957 52.828.016-.277.031-.55.043-.828 0-29.824-24.176-54-54-54zm0 0"/></g><mask id="h"><g filter="url(#a)"><path fill-opacity=".2" d="M0 0h128v128H0z"/></g></mask><clipPath id="d"><path d="M0 0h192v152H0z"/></clipPath><linearGradient id="i" gradientUnits="userSpaceOnUse" x1="1660.857" y1="806.297" x2="1662.99" y2="812.882" gradientTransform="matrix(1.8294 -.816 .816 1.8294 -3637.962 92.03)"><stop offset="0" stop-color="#9a9996"/><stop offset="1" stop-color="#77767b"/></linearGradient><mask id="k"><g filter="url(#a)"><path fill-opacity=".1" d="M0 0h128v128H0z"/></g></mask><clipPath id="e"><path d="M0 0h192v152H0z"/></clipPath><clipPath id="f"><path d="M0 0h128v128H0z"/></clipPath><g id="m" clip-path="url(#f)"><path d="M124 65c0 33.137-26.863 60-60 60S4 98.137 4 65 30.863 5 64 5s60 26.863 60 60zm0 0" fill="#deddda"/><path d="M64 7c30.93 0 56 25.07 56 56v2c0 30.93-25.07 56-56 56S8 95.93 8 65v-2C8 32.07 33.07 7 64 7zm0 0" fill="#d5d3cf"/><path d="M124 63c0 33.137-26.863 60-60 60S4 96.137 4 63 30.863 3 64 3s60 26.863 60 60zm0 0" fill="#f6f5f4"/><path d="M118 63c0 29.824-24.176 54-54 54S10 92.824 10 63 34.176 9 64 9s54 24.176 54 54zm0 0" fill="#3d3846"/><use xlink:href="#g" transform="translate(-8 -16)" mask="url(#h)"/><path d="M72 227l-18-20" transform="translate(-8 -164)" fill-rule="evenodd" fill="#c0bfbc" stroke-width="4.006" stroke-linecap="round" stroke="url(#i)"/><path d="M64 63l26-28" fill="none" stroke-width="2.003" stroke-linecap="round" stroke="#fff"/><path d="M64 63L50 99" fill="none" stroke-width="2.003" stroke-linecap="round" stroke="#ed333b"/><path d="M69.48 60.555a6.007 6.007 0 0 1-3.035 7.925 6.007 6.007 0 0 1-7.925-3.035 6.007 6.007 0 0 1 3.035-7.925 6.007 6.007 0 0 1 7.925 3.035zm0 0" fill="#d5d3cf"/><path d="M66.031 63a2.003 2.003 0 1 1-4.006.002A2.003 2.003 0 0 1 66.031 63zm0 0" fill="#131c1a"/><path d="M66.027 63a1.999 1.999 0 1 1-4 0 1.999 1.999 0 1 1 4 0zm0 0" fill="#131c1a"/><use xlink:href="#j" transform="translate(-8 -16)" mask="url(#k)"/></g><clipPath id="l"><path d="M0 0h128v128H0z"/></clipPath><g id="n" clip-path="url(#l)" filter="url(#a)"><use xlink:href="#m"/></g><mask id="x"><use xlink:href="#n"/></mask><mask id="s"><g filter="url(#a)"><path fill-opacity=".8" d="M0 0h128v128H0z"/></g></mask><linearGradient id="p" gradientUnits="userSpaceOnUse" x1="300" y1="235" x2="428" y2="235" gradientTransform="matrix(0 .37 -.98462 0 295.385 -30.36)"><stop offset="0" stop-color="#f9f06b"/><stop offset="1" stop-color="#f5c211"/></linearGradient><clipPath id="o"><path d="M0 0h128v128H0z"/></clipPath><g id="r" clip-path="url(#o)"><path d="M128 80.64V128H0V80.64zm0 0" fill="url(#p)"/><path d="M13.309 80.64L60.664 128H81.88l-47.36-47.36zm42.421 0L103.094 128h21.215L76.945 80.64zm42.43 0L128 110.48V89.27l-8.629-8.63zM0 88.548v21.215L18.238 128h21.215zm0 0"/></g><clipPath id="q"><path d="M0 0h128v128H0z"/></clipPath><g id="w" clip-path="url(#q)"><use xlink:href="#r" mask="url(#s)"/></g></defs><path d="M124 65c0 33.137-26.863 60-60 60S4 98.137 4 65 30.863 5 64 5s60 26.863 60 60zm0 0" fill="#deddda"/><path d="M64 7c30.93 0 56 25.07 56 56v2c0 30.93-25.07 56-56 56S8 95.93 8 65v-2C8 32.07 33.07 7 64 7zm0 0" fill="#d5d3cf"/><path d="M124 63c0 33.137-26.863 60-60 60S4 96.137 4 63 30.863 3 64 3s60 26.863 60 60zm0 0" fill="#f6f5f4"/><path d="M118 63c0 29.824-24.176 54-54 54S10 92.824 10 63 34.176 9 64 9s54 24.176 54 54zm0 0" fill="#3d3846"/><use xlink:href="#g" transform="translate(-8 -16)" mask="url(#t)"/><path d="M72 227l-18-20" transform="translate(-8 -164)" fill-rule="evenodd" fill="#c0bfbc" stroke-width="4.006" stroke-linecap="round" stroke="url(#u)"/><path d="M64 63l26-28" fill="none" stroke-width="2.003" stroke-linecap="round" stroke="#fff"/><path d="M64 63L50 99" fill="none" stroke-width="2.003" stroke-linecap="round" stroke="#ed333b"/><path d="M69.48 60.555a6.007 6.007 0 0 1-3.035 7.925 6.007 6.007 0 0 1-7.925-3.035 6.007 6.007 0 0 1 3.035-7.925 6.007 6.007 0 0 1 7.925 3.035zm0 0" fill="#d5d3cf"/><path d="M66.031 63a2.003 2.003 0 1 1-4.006.002A2.003 2.003 0 0 1 66.031 63zm0 0" fill="#131c1a"/><path d="M66.027 63a1.999 1.999 0 1 1-4 0 1.999 1.999 0 1 1 4 0zm0 0" fill="#131c1a"/><use xlink:href="#j" transform="translate(-8 -16)" mask="url(#v)"/><use xlink:href="#w" mask="url(#x)"/></svg>